<?xml version="1.0" encoding="UTF-8" standalone="no"?>
<!-- Created with Inkscape (http://www.inkscape.org/) -->

<svg
   xmlns:dc="http://purl.org/dc/elements/1.1/"
   xmlns:cc="http://creativecommons.org/ns#"
   xmlns:rdf="http://www.w3.org/1999/02/22-rdf-syntax-ns#"
   xmlns:svg="http://www.w3.org/2000/svg"
   xmlns="http://www.w3.org/2000/svg"
   xmlns:sodipodi="http://sodipodi.sourceforge.net/DTD/sodipodi-0.dtd"
   xmlns:inkscape="http://www.inkscape.org/namespaces/inkscape"
   width="56"
   height="56"
   viewBox="0 0 56.000001 56.000001"
   id="svg2"
   version="1.1"
   inkscape:version="0.91 r13725"
   inkscape:export-filename="C:\Users\gcgol\Desktop\Projects\Android Studio\android-tab-chess\app\src\main\res\drawable\w_b.png"
   inkscape:export-xdpi="90"
   inkscape:export-ydpi="90"
   sodipodi:docname="pieces.svg">
  <defs
     id="defs4" />
  <sodipodi:namedview
     id="base"
     pagecolor="#ffffff"
     bordercolor="#666666"
     borderopacity="1.0"
     inkscape:pageopacity="0.0"
     inkscape:pageshadow="2"
     inkscape:zoom="7.9195959"
     inkscape:cx="-262.38817"
     inkscape:cy="242.08854"
     inkscape:document-units="px"
     inkscape:current-layer="layer1"
     showgrid="false"
     units="px"
     inkscape:window-width="1474"
     inkscape:window-height="841"
     inkscape:window-x="-8"
     inkscape:window-y="-8"
     inkscape:window-maximized="1" />
  <metadata
     id="metadata7">
    <rdf:RDF>
      <cc:Work
         rdf:about="">
        <dc:format>image/svg+xml</dc:format>
        <dc:type
           rdf:resource="http://purl.org/dc/dcmitype/StillImage" />
        <dc:title></dc:title>
      </cc:Work>
    </rdf:RDF>
  </metadata>
  <g
     inkscape:label="Layer 1"
     inkscape:groupmode="layer"
     id="layer1"
     transform="translate(0,-996.36216)">
    <path
       style="fill:none;fill-rule:evenodd;stroke:#000000;stroke-width:0.88354671px;stroke-linecap:butt;stroke-linejoin:miter;stroke-opacity:1"
       d="m 14.7625,1042.7241 0,3.6246 26.372522,-0.1509 -0.494484,-3.9267 -1.813112,0 -2.966908,-2.5675 0.988969,-1.6613 -2.142767,-0.6041 -2.966909,-1.3592 -1.813111,-11.1759 3.79105,0.1511 -0.164828,-1.2083 -2.802081,-0.6041 -1.977939,-1.5102 0.98897,-1.5103 2.637253,-0.6041 1.483453,-1.6613 0.494486,-2.4164 -0.98897,-3.1715 -3.296566,-3.3226 -2.307596,3.4735 -1.483454,-0.755 2.307596,-3.4737 -1.97794,-1.0572 0.98897,-0.9061 0.329657,-1.6613 -1.318627,-0.7551 -2.966908,0.151 -0.98897,0.6041 0.659313,1.6613 0.824142,0.7552 -2.472424,0.453 -3.626223,2.7185 -1.977939,4.2287 0.164828,4.0777 4.944848,2.5674 2.802082,0.1511 0.988969,0.9061 -1.318626,1.2083 -2.802081,0.6041 -1.483454,0.604 0,1.5103 4.615192,-0.4531 -0.824142,10.7228 -3.131737,1.9634 -3.296565,0 0,2.4164 -0.824141,1.9633 z"
       id="path3340"
       inkscape:connector-curvature="0" />
    <path
       style="fill:#f2f2f2"
       d="m 15.221242,48.142084 0,-1.25 0.512373,0 c 0.456175,0 0.563898,-0.118807 0.982143,-1.083198 0.346402,-0.798736 0.46977,-1.384928 0.46977,-2.232143 l 0,-1.148944 1.566936,0 1.566936,0 1.647231,-1.024645 c 1.388413,-0.863646 1.660483,-1.109154 1.731565,-1.5625 0.14258,-0.909336 0.861704,-10.991568 0.788381,-11.053223 -0.06746,-0.05672 -2.359061,0.135523 -3.863549,0.324116 -0.652871,0.08184 -0.758928,0.04912 -0.758928,-0.234148 0,-0.359283 0.956682,-0.72517 2.971528,-1.136474 0.910723,-0.18591 1.2499,-0.367628 2.001646,-1.072398 l 0.905117,-0.848558 -0.739848,-0.690123 c -0.705585,-0.658163 -0.810105,-0.695523 -2.25692,-0.806734 -1.411197,-0.108473 -1.665624,-0.194255 -3.645693,-1.229177 -1.459241,-0.7627 -2.179172,-1.242569 -2.289369,-1.525976 -0.08841,-0.227375 -0.160747,-1.086246 -0.160747,-1.908601 0,-1.424913 0.04316,-1.587907 0.918164,-3.467782 l 0.918164,-1.972591 1.682599,-1.264722 c 1.575712,-1.184379 1.775458,-1.281578 3.144336,-1.530076 2.066845,-0.375202 2.01888,-0.324885 1.125604,-1.180794 -0.866107,-0.8298773 -1.217525,-1.6773485 -0.804108,-1.9391696 0.404009,-0.2558625 3.060474,-0.1841905 3.425194,0.092412 0.481517,0.3651815 0.220622,1.1470705 -0.63564,1.9049802 l -0.724943,0.641675 1.083442,0.595625 1.083443,0.595626 -1.022628,1.530557 c -0.562445,0.841806 -1.080244,1.628297 -1.150664,1.747757 -0.08484,0.143917 0.234047,0.399978 0.945123,0.758928 0.590237,0.297951 1.152256,0.541729 1.248931,0.541729 0.09667,0 0.641346,-0.721478 1.210381,-1.603284 l 1.034607,-1.603283 1.390759,1.380069 c 1.306109,1.296072 1.419061,1.470574 1.855763,2.867045 0.431196,1.37887 0.448737,1.560623 0.24128,2.5 -0.143961,0.651856 -0.439255,1.278117 -0.828259,1.75657 -0.539243,0.663241 -0.751248,0.778134 -1.962947,1.063793 -1.346229,0.317374 -1.364796,0.329647 -2.07022,1.36843 -0.391495,0.576502 -0.68452,1.066551 -0.651166,1.089 0.03335,0.02245 0.582963,0.445387 1.221356,0.939862 0.931013,0.721128 1.390416,0.945039 2.321429,1.13145 1.92125,0.38468 1.738164,0.597216 -0.401786,0.466414 -1.055803,-0.06454 -1.919643,-0.07546 -1.919643,-0.02427 0,0.148773 1.787454,11.216261 1.88175,11.651345 0.06281,0.289789 0.497037,0.586777 1.643374,1.123968 0.856907,0.40156 1.900914,0.816453 2.320016,0.921984 0.419101,0.105532 0.761703,0.242603 0.761335,0.304603 -3.57e-4,0.062 -0.16456,0.381554 -0.364875,0.710118 -0.435587,0.71447 -0.480432,0.645389 1.52324,2.346479 1.352191,1.147992 1.54263,1.252562 2.281114,1.252562 l 0.805752,0 0.117064,1.026786 c 0.06439,0.564732 0.160386,1.247768 0.213336,1.517857 l 0.09627,0.491071 -12.69276,0 -12.69276,0 0,-1.25 z"
       id="path3342"
       inkscape:connector-curvature="0"
       transform="translate(0,996.36216)"
       inkscape:export-xdpi="90"
       inkscape:export-ydpi="90" />
    <path
       style="fill:#000000;fill-rule:evenodd;stroke:#000000;stroke-width:0.88354671px;stroke-linecap:butt;stroke-linejoin:miter;stroke-opacity:1"
       d="m -267.50136,814.24416 0,3.6246 26.37252,-0.1509 -0.49448,-3.9267 -1.81311,0 -2.96691,-2.5675 0.98897,-1.6613 -2.14277,-0.6041 -2.96691,-1.3592 -1.81311,-11.1759 3.79105,0.1511 -0.16483,-1.2083 -2.80208,-0.6041 -1.97794,-1.5102 0.98897,-1.5103 2.63725,-0.6041 1.48346,-1.6613 0.49448,-2.4164 -0.98897,-3.1715 -3.29656,-3.32262 -2.3076,3.47352 -1.48345,-0.755 2.30759,-3.47372 -1.97794,-1.0572 0.98897,-0.90615 0.32966,-1.6613 -1.31863,-0.7551 -2.9669,0.151 -0.98897,0.6041 0.65931,1.6613 0.82414,0.7552 -2.47242,0.45305 -3.62623,2.7185 -1.97794,4.22872 0.16483,4.0777 4.94485,2.5674 2.80208,0.1511 0.98897,0.9061 -1.31862,1.2083 -2.80209,0.6041 -1.48345,0.604 0,1.5103 4.61519,-0.4531 -0.82414,10.7228 -3.13174,1.9634 -3.29656,0 0,2.4164 -0.82414,1.9633 z"
       id="path3340-4"
       inkscape:connector-curvature="0" />
    <path
       style="fill:#000000"
       d="m -267.04262,816.02426 0,-1.25 0.51237,0 c 0.45618,0 0.5639,-0.1188 0.98215,-1.0832 0.3464,-0.7987 0.46977,-1.3849 0.46977,-2.2321 l 0,-1.149 1.56693,0 1.56694,0 1.64723,-1.0246 c 1.38841,-0.8637 1.66048,-1.1092 1.73157,-1.5625 0.14258,-0.9094 0.8617,-10.9916 0.78838,-11.0533 -0.0675,-0.057 -2.35906,0.1356 -3.86355,0.3242 -0.65287,0.082 -0.75893,0.049 -0.75893,-0.2342 0,-0.3593 0.95668,-0.7252 2.97153,-1.1365 0.91072,-0.1859 1.2499,-0.3676 2.00164,-1.0724 l 0.90512,-0.8485 -0.73985,-0.6901 c -0.70558,-0.6582 -0.8101,-0.6956 -2.25692,-0.8068 -1.41119,-0.1084 -1.66562,-0.1942 -3.64569,-1.2292 -1.45924,-0.7627 -2.17917,-1.2425 -2.28937,-1.5259 -0.0884,-0.2274 -0.16075,-1.0863 -0.16075,-1.9086 0,-1.4249 0.0432,-1.5879 0.91817,-3.4678 l 0.91816,-1.97262 1.6826,-1.2647 c 1.57571,-1.1844 1.77546,-1.2816 3.14434,-1.5301 2.06684,-0.3752 2.01888,-0.3249 1.1256,-1.18079 -0.86611,-0.82988 -1.21752,-1.67735 -0.80411,-1.93917 0.40401,-0.25587 3.06048,-0.18419 3.4252,0.0924 0.48151,0.36518 0.22062,1.14707 -0.63564,1.90498 l -0.72495,0.64167 1.08345,0.5956 1.08344,0.5957 -1.02263,1.5305 c -0.56244,0.84183 -1.08024,1.62833 -1.15066,1.74783 -0.0848,0.1439 0.23404,0.3999 0.94512,0.7589 0.59024,0.2979 1.15226,0.5417 1.24893,0.5417 0.0967,0 0.64135,-0.7215 1.21038,-1.6033 l 1.03461,-1.60323 1.39076,1.38003 c 1.30611,1.2961 1.41906,1.4706 1.85576,2.8671 0.4312,1.3788 0.44874,1.5606 0.24128,2.5 -0.14396,0.6518 -0.43925,1.2781 -0.82826,1.7565 -0.53924,0.6633 -0.75125,0.7782 -1.96295,1.0638 -1.34622,0.3174 -1.36479,0.3297 -2.07022,1.3685 -0.39149,0.5765 -0.68452,1.0665 -0.65116,1.089 0.0333,0.022 0.58296,0.4454 1.22135,0.9398 0.93102,0.7212 1.39042,0.9451 2.32143,1.1315 1.92125,0.3847 1.73817,0.5972 -0.40178,0.4664 -1.05581,-0.064 -1.91965,-0.075 -1.91965,-0.024 0,0.1488 1.78746,11.2163 1.88175,11.6514 0.0628,0.2898 0.49704,0.5867 1.64338,1.1239 0.85691,0.4016 1.90091,0.8165 2.32001,0.922 0.41911,0.1056 0.76171,0.2426 0.76134,0.3046 -3.6e-4,0.062 -0.16456,0.3816 -0.36488,0.7101 -0.43558,0.7145 -0.48043,0.6454 1.52324,2.3465 1.3522,1.148 1.54263,1.2526 2.28112,1.2526 l 0.80575,0 0.11706,1.0268 c 0.0644,0.5647 0.16039,1.2477 0.21334,1.5178 l 0.0963,0.4911 -12.69276,0 -12.69276,0 0,-1.25 z"
       id="path3342-0"
       inkscape:connector-curvature="0"
       inkscape:export-xdpi="90"
       inkscape:export-ydpi="90" />
    <path
       style="fill:none;fill-rule:evenodd;stroke:#000000;stroke-width:0.88354671px;stroke-linecap:butt;stroke-linejoin:miter;stroke-opacity:1"
       d="m -303.21565,814.24414 0,3.6246 26.37253,-0.1509 -0.49449,-3.9267 -1.81311,0 -2.96691,-2.5675 0.98897,-1.6613 -2.14277,-0.6041 -2.96691,-1.3592 -1.81311,-11.1759 3.79105,0.1511 -0.16482,-1.2083 -2.80209,-0.6041 -1.97793,-1.5102 0.98897,-1.5103 2.63725,-0.6041 1.48345,-1.6613 0.49449,-2.4164 -0.98897,-3.1715 -3.29657,-3.3226 -2.30759,3.4735 -1.48346,-0.755 2.3076,-3.4737 -1.97794,-1.0572 0.98897,-0.9062 0.32965,-1.6613 -1.31862,-0.7551 -2.96691,0.151 -0.98897,0.6041 0.65931,1.6613 0.82415,0.7552 -2.47243,0.4531 -3.62622,2.7185 -1.97794,4.2287 0.16483,4.0777 4.94485,2.5674 2.80208,0.1511 0.98897,0.9061 -1.31863,1.2083 -2.80208,0.6041 -1.48345,0.604 0,1.5103 4.61519,-0.4531 -0.82414,10.7228 -3.13174,1.9634 -3.29657,0 0,2.4164 -0.82414,1.9633 z"
       id="path3340-2"
       inkscape:connector-curvature="0" />
    <path
       style="fill:#f2f2f2"
       d="m -302.7569,816.02424 0,-1.25 0.51237,0 c 0.45617,0 0.5639,-0.1188 0.98214,-1.0832 0.3464,-0.7987 0.46977,-1.3849 0.46977,-2.2321 l 0,-1.149 1.56694,0 1.56693,0 1.64724,-1.0246 c 1.38841,-0.8637 1.66048,-1.1092 1.73156,-1.5625 0.14258,-0.9094 0.8617,-10.9916 0.78838,-11.0533 -0.0675,-0.057 -2.35906,0.1356 -3.86355,0.3242 -0.65287,0.082 -0.75893,0.049 -0.75893,-0.2342 0,-0.3593 0.95669,-0.7252 2.97153,-1.1365 0.91073,-0.1859 1.2499,-0.3676 2.00165,-1.0724 l 0.90511,-0.8485 -0.73984,-0.6901 c -0.70559,-0.6582 -0.81011,-0.6956 -2.25692,-0.8068 -1.4112,-0.1084 -1.66563,-0.1942 -3.6457,-1.2292 -1.45924,-0.7627 -2.17917,-1.2425 -2.28936,-1.5259 -0.0884,-0.2274 -0.16075,-1.0863 -0.16075,-1.9086 0,-1.4249 0.0432,-1.5879 0.91816,-3.4678 l 0.91817,-1.9726 1.6826,-1.2647 c 1.57571,-1.1844 1.77545,-1.2816 3.14433,-1.5301 2.06685,-0.3752 2.01888,-0.3249 1.1256,-1.1808 -0.8661,-0.8299 -1.21752,-1.6773 -0.8041,-1.9392 0.40401,-0.2558 3.06047,-0.1842 3.42519,0.092 0.48152,0.3652 0.22062,1.1471 -0.63564,1.905 l -0.72494,0.6417 1.08344,0.5956 1.08344,0.5957 -1.02263,1.5305 c -0.56244,0.8418 -1.08024,1.6283 -1.15066,1.7478 -0.0848,0.1439 0.23405,0.3999 0.94512,0.7589 0.59024,0.2979 1.15226,0.5417 1.24893,0.5417 0.0967,0 0.64135,-0.7215 1.21039,-1.6033 l 1.0346,-1.6032 1.39076,1.38 c 1.30611,1.2961 1.41906,1.4706 1.85576,2.8671 0.4312,1.3788 0.44874,1.5606 0.24128,2.5 -0.14396,0.6518 -0.43925,1.2781 -0.82825,1.7565 -0.53925,0.6633 -0.75125,0.7782 -1.96295,1.0638 -1.34623,0.3174 -1.3648,0.3297 -2.07022,1.3685 -0.3915,0.5765 -0.68452,1.0665 -0.65117,1.089 0.0334,0.022 0.58297,0.4454 1.22136,0.9398 0.93101,0.7212 1.39041,0.9451 2.32143,1.1315 1.92125,0.3847 1.73816,0.5972 -0.40179,0.4664 -1.0558,-0.064 -1.91964,-0.075 -1.91964,-0.024 0,0.1488 1.78745,11.2163 1.88175,11.6514 0.0628,0.2898 0.49704,0.5867 1.64337,1.1239 0.85691,0.4016 1.90092,0.8165 2.32002,0.922 0.4191,0.1056 0.7617,0.2426 0.76133,0.3046 -3.5e-4,0.062 -0.16456,0.3816 -0.36487,0.7101 -0.43559,0.7145 -0.48043,0.6454 1.52324,2.3465 1.35219,1.148 1.54263,1.2526 2.28111,1.2526 l 0.80575,0 0.11707,1.0268 c 0.0644,0.5647 0.16038,1.2477 0.21333,1.5178 l 0.0963,0.4911 -12.69276,0 -12.69275,0 0,-1.25 z"
       id="path3342-2"
       inkscape:connector-curvature="0"
       inkscape:export-xdpi="90"
       inkscape:export-ydpi="90" />
  </g>
</svg>
