<?xml version="1.0" encoding="UTF-8" standalone="no"?>
<!-- Created with Inkscape (http://www.inkscape.org/) -->

<svg
   xmlns:dc="http://purl.org/dc/elements/1.1/"
   xmlns:cc="http://creativecommons.org/ns#"
   xmlns:rdf="http://www.w3.org/1999/02/22-rdf-syntax-ns#"
   xmlns:svg="http://www.w3.org/2000/svg"
   xmlns="http://www.w3.org/2000/svg"
   xmlns:sodipodi="http://sodipodi.sourceforge.net/DTD/sodipodi-0.dtd"
   xmlns:inkscape="http://www.inkscape.org/namespaces/inkscape"
   width="512"
   height="512"
   viewBox="0 0 512.00001 512.00001"
   id="svg2"
   version="1.1"
   inkscape:version="0.91 r13725"
   inkscape:export-filename="C:\Users\gcgol\Desktop\Projects\Android Studio\android-tab-chess\screenshots\logos\logo.png"
   inkscape:export-xdpi="90"
   inkscape:export-ydpi="90"
   sodipodi:docname="logo.svg">
  <defs
     id="defs4" />
  <sodipodi:namedview
     id="base"
     pagecolor="#ffffff"
     bordercolor="#666666"
     borderopacity="1.0"
     inkscape:pageopacity="0.0"
     inkscape:pageshadow="2"
     inkscape:zoom="0.35355339"
     inkscape:cx="1070.8927"
     inkscape:cy="31.300328"
     inkscape:document-units="px"
     inkscape:current-layer="layer1"
     showgrid="false"
     units="px"
     inkscape:window-width="1474"
     inkscape:window-height="841"
     inkscape:window-x="-8"
     inkscape:window-y="-8"
     inkscape:window-maximized="1" />
  <metadata
     id="metadata7">
    <rdf:RDF>
      <cc:Work
         rdf:about="">
        <dc:format>image/svg+xml</dc:format>
        <dc:type
           rdf:resource="http://purl.org/dc/dcmitype/StillImage" />
        <dc:title></dc:title>
      </cc:Work>
    </rdf:RDF>
  </metadata>
  <g
     inkscape:label="Layer 1"
     inkscape:groupmode="layer"
     id="layer1"
     transform="translate(0,-540.36216)">
    <path
       id="path3646-3-1"
       style="fill:#000000;fill-rule:evenodd;stroke:#000000;stroke-width:1px;stroke-linecap:butt;stroke-linejoin:miter;stroke-opacity:1"
       d="m 422.15825,1343.1493 11.4375,0 1.25,-1.75 -0.18287,-4.1365 -5.74524,0.1767 0,2.1213 -3.09359,0 0,-2.2097 -3.53554,0.088 m 1.85874,5.7163 -11.4375,0 -1.25,-1.75 0.18287,-4.1366 5.74524,0.1768 0,2.1213 3.09359,0 0,-2.2097 3.53554,0.088 m 12.07088,39.941 -25.875,0 2.625,-31.875 13.125,0.125 m -15.89643,31.7478 25.875,0 -2.625,-31.875 -13.125,0.125 m -15.1241,41.8286 35.50668,-0.1077 0.005,-3.411 -4.2699,-1.1849 0.0381,-2.7019 -16.51996,-0.05 m 21.51238,7.4374 -35.50668,-0.1077 -0.005,-3.411 4.2699,-1.1849 -0.0381,-2.7019 16.51996,-0.05"
       inkscape:connector-curvature="0" />
    <path
       inkscape:connector-curvature="0"
       id="path3646-3-7"
       style="fill:#ffffff;fill-rule:evenodd;stroke:#000000;stroke-width:1px;stroke-linecap:butt;stroke-linejoin:miter;stroke-opacity:1"
       d="m 422.86535,1398.3768 11.43751,0 1.25,-1.75 -0.18288,-4.1365 -5.74524,0.1767 0,2.1213 -3.09359,0 0,-2.2097 -3.53554,0.088 m 1.85874,5.7163 -11.4375,0 -1.25,-1.75 0.18287,-4.1366 5.74524,0.1768 0,2.1213 3.0936,0 0,-2.2097 3.53553,0.088 m 12.07089,39.9406 -25.875,0 2.625,-31.875 13.125,0.125 m -15.89643,31.7478 25.87499,0 -2.625,-31.875 -13.125,0.125 m -15.1241,41.8286 35.50668,-0.1077 0.005,-3.411 -4.2699,-1.1849 0.0381,-2.7019 -16.51996,-0.05 m 21.51239,7.4374 -35.50669,-0.1077 -0.005,-3.411 4.2699,-1.1849 -0.0381,-2.7019 16.51996,-0.05" />
    <path
       inkscape:connector-curvature="0"
       id="path3814-7-6-5"
       style="fill:#ffffff;fill-opacity:1;stroke:#000000;stroke-width:1;stroke-miterlimit:4;stroke-dasharray:none;stroke-opacity:1"
       d="m 528.46496,1391.682 a 2.0024726,1.9922092 0 0 1 -2.00248,1.9922 2.0024726,1.9922092 0 0 1 -2.00247,-1.9922 2.0024726,1.9922092 0 0 1 2.00247,-1.9923 2.0024726,1.9922092 0 0 1 2.00248,1.9923 z m -1.42828,10.5314 -5.61944,-0.1241 -3.83768,-7.5685 3.70062,1.613 3.28943,-1.1167 2.33001,1.4889 m -0.81152,5.706 5.61945,-0.1241 3.83767,-7.5685 -3.70061,1.613 -3.28943,-1.1167 -2.33002,1.4889 m -5.60106,7.726 11.49998,0 0,1.9528 -11.49998,0 z m -12.20931,39.465 35.50669,-0.1077 0.005,-3.411 -4.2699,-1.1849 0.0381,-2.7019 -16.51996,-0.05 m 21.51239,7.4374 -35.50669,-0.1077 -0.005,-3.411 4.2699,-1.1849 -0.0381,-2.7019 16.51996,-0.05 m 9.50376,-2.2749 -25.96674,0 7.6903,-25.9688 8.11554,-0.043 m -15.9528,26.0095 25.96675,0 -7.69031,-25.9689 -8.11553,-0.043" />
    <path
       inkscape:connector-curvature="0"
       id="path3814-7-6"
       style="fill:#000000;fill-opacity:1;stroke:#000000;stroke-width:1;stroke-miterlimit:4;stroke-dasharray:none;stroke-opacity:1"
       d="m 521.96496,1330.182 a 2.0024726,1.9922092 0 0 1 -2.00248,1.9922 2.0024726,1.9922092 0 0 1 -2.00247,-1.9922 2.0024726,1.9922092 0 0 1 2.00247,-1.9923 2.0024726,1.9922092 0 0 1 2.00248,1.9923 z m -1.42828,10.5314 -5.61944,-0.1241 -3.83768,-7.5685 3.70062,1.613 3.28943,-1.1167 2.33001,1.4889 m -0.81152,5.706 5.61945,-0.1241 3.83767,-7.5685 -3.70061,1.613 -3.28943,-1.1167 -2.33002,1.4889 m -5.60106,7.726 11.49998,0 0,1.9528 -11.49998,0 z m -12.20931,39.465 35.50669,-0.1077 0.005,-3.411 -4.2699,-1.1849 0.0381,-2.7019 -16.51996,-0.05 m 21.51239,7.4374 -35.50669,-0.1077 -0.005,-3.411 4.2699,-1.1849 -0.0381,-2.7019 16.51996,-0.05 m 9.50376,-2.2749 -25.96674,0 7.6903,-25.9688 8.11554,-0.043 m -15.9528,26.0095 25.96675,0 -7.69031,-25.9689 -8.11553,-0.043" />
    <path
       id="rect4618-6"
       style="fill:#000000;fill-opacity:1;stroke:#000000;stroke-width:1;stroke-miterlimit:4;stroke-dasharray:none;stroke-opacity:1"
       d="m 364.7353,1351.4656 6.80494,0 0,1.854 -6.80494,0 z m 7.47558,-5.4094 a 4.0560021,4.1341271 0 0 1 -4.056,4.1341 4.0560021,4.1341271 0 0 1 -4.056,-4.1341 4.0560021,4.1341271 0 0 1 4.056,-4.1341 4.0560021,4.1341271 0 0 1 4.056,4.1341 z m -5.05679,26.5874 12.1975,-0.036 -8.19415,-17.666 -4.84801,0.1015 m 2.70119,17.6092 -12.1975,-0.036 8.19416,-17.666 4.848,0.1015 m -19.94049,27.4114 35.50669,-0.1077 0.005,-3.411 -4.2699,-1.1849 0.0381,-2.7019 -16.51996,-0.05 m 21.51238,7.4374 -35.50669,-0.1077 -0.005,-3.411 4.2699,-1.1849 -0.0381,-2.7019 16.51997,-0.05"
       inkscape:connector-curvature="0" />
    <path
       id="rect4618-93"
       style="fill:#ffffff;fill-opacity:1;stroke:#000000;stroke-width:1;stroke-miterlimit:4;stroke-dasharray:none;stroke-opacity:1"
       d="m 364.2353,1403.4656 6.80494,0 0,1.854 -6.80494,0 z m 7.47558,-5.4094 a 4.0560021,4.1341271 0 0 1 -4.056,4.1341 4.0560021,4.1341271 0 0 1 -4.056,-4.1341 4.0560021,4.1341271 0 0 1 4.056,-4.1341 4.0560021,4.1341271 0 0 1 4.056,4.1341 z m -5.05679,26.5874 12.1975,-0.036 -8.19415,-17.666 -4.84801,0.1015 m 2.70119,17.6092 -12.1975,-0.036 8.19416,-17.666 4.848,0.1015 m -19.94049,27.4114 35.50669,-0.1077 0.005,-3.411 -4.2699,-1.1849 0.0381,-2.7019 -16.51996,-0.05 m 21.51238,7.4374 -35.50669,-0.1077 -0.005,-3.411 4.2699,-1.1849 -0.0381,-2.7019 16.51997,-0.05"
       inkscape:connector-curvature="0" />
    <path
       inkscape:connector-curvature="0"
       id="path3814-7-61-1"
       style="fill:#ffffff;fill-opacity:1;stroke:#000000;stroke-width:1;stroke-miterlimit:4;stroke-dasharray:none;stroke-opacity:1"
       d="m 574.0608,1387.7196 a 1.4983649,1.5322957 0 0 1 -1.49836,1.5323 1.4983649,1.5322957 0 0 1 -1.49837,-1.5323 1.4983649,1.5322957 0 0 1 1.49837,-1.5323 1.4983649,1.5322957 0 0 1 1.49836,1.5323 z m 2.63838,6.0106 2.21662,3.0858 -2.03294,4.5962 -4.24264,0 -2.82842,0 m 3.54391,-10.89 -2.2981,0 -4.5078,6.2755 2.03293,4.5962 4.24264,0 2.82843,0 m -3.54392,-10.8534 2.2981,0 1.31377,1.8289 -2.40802,4.3216 0.44194,0.3094 2.9435,-3.2702 m -9.86946,9.4191 11.49999,0 0,1.9528 -11.49999,0 z m -12.2093,39.465 35.50669,-0.1077 0.005,-3.411 -4.2699,-1.1849 0.0381,-2.7019 -16.51996,-0.05 m 21.51238,7.4374 -35.50669,-0.1077 -0.005,-3.411 4.2699,-1.1849 -0.0381,-2.7019 16.51997,-0.05 m 9.50376,-2.2749 -25.96675,0 7.69031,-25.9687 8.11554,-0.043 m -15.9528,26.0094 25.96675,0 -7.69031,-25.9688 -8.11554,-0.043" />
    <path
       inkscape:connector-curvature="0"
       id="path3814-7-61"
       style="fill:#000000;fill-opacity:1;stroke:#000000;stroke-width:1;stroke-miterlimit:4;stroke-dasharray:none;stroke-opacity:1"
       d="m 569.11105,1326.5549 a 1.4983649,1.5322957 0 0 1 -1.49836,1.5323 1.4983649,1.5322957 0 0 1 -1.49837,-1.5323 1.4983649,1.5322957 0 0 1 1.49837,-1.5322 1.4983649,1.5322957 0 0 1 1.49836,1.5322 z m 2.63839,6.0106 2.21661,3.0858 -2.03293,4.5962 -4.24264,0 -2.82843,0 m 3.54391,-10.89 -2.29809,0 -4.50781,6.2755 2.03293,4.5962 4.24264,0 2.82843,0 m -3.54391,-10.8534 2.29809,0 1.31377,1.829 -2.40802,4.3215 0.44194,0.3094 2.94351,-3.2702 m -9.86946,9.4191 11.49998,0 0,1.9528 -11.49998,0 z m -12.20931,39.465 35.50669,-0.1077 0.005,-3.411 -4.2699,-1.1849 0.0381,-2.7019 -16.51996,-0.05 m 21.51238,7.4374 -35.50668,-0.1077 -0.005,-3.411 4.2699,-1.1849 -0.0381,-2.7019 16.51996,-0.05 m 9.50376,-2.2749 -25.96674,0 7.6903,-25.9687 8.11554,-0.043 m -15.9528,26.0094 25.96675,0 -7.69031,-25.9688 -8.11554,-0.043" />
    <path
       style="fill:#000000;fill-opacity:1;stroke:#000000;stroke-width:0.99009562;stroke-miterlimit:4;stroke-dasharray:none;stroke-opacity:1"
       d="m 569.22242,1333.0075 c -4.8e-4,-0.01 -0.11854,-0.5848 -0.26236,-1.2782 -0.14382,-0.6935 -0.2575,-1.2649 -0.25263,-1.2699 0.009,-0.01 1.29763,0.8963 1.35416,0.9507 0.0223,0.022 -0.0506,0.17 -0.37025,0.7546 -0.21892,0.4002 -0.41379,0.7575 -0.43304,0.794 -0.0193,0.037 -0.0354,0.058 -0.0359,0.049 z"
       id="path5154"
       inkscape:connector-curvature="0" />
    <path
       style="fill:#ffffff;fill-opacity:1;stroke:#000000;stroke-width:0.99009562;stroke-miterlimit:4;stroke-dasharray:none;stroke-opacity:1"
       d="m 568.38762,1330.1921 c -0.14296,-0.1017 -0.29392,-0.2095 -0.33549,-0.2394 l -0.0756,-0.055 0.29242,0 0.29242,0 0.0483,0.2358 c 0.0266,0.1297 0.046,0.2375 0.043,0.2395 -0.003,0 -0.12226,-0.08 -0.26522,-0.1813 z"
       id="path5156"
       inkscape:connector-curvature="0" />
    <path
       style="fill:#000000;fill-rule:evenodd;stroke:#ffffff;stroke-width:0.99009562;stroke-linecap:butt;stroke-linejoin:miter;stroke-miterlimit:4;stroke-dasharray:none;stroke-opacity:1"
       d="m 571.66475,1331.8403 -2.10108,2.5855"
       id="path5158"
       inkscape:connector-curvature="0" />
    <path
       style="fill:#000000;fill-opacity:1;stroke:#ffffff;stroke-width:0.0625;stroke-miterlimit:4;stroke-dasharray:none;stroke-opacity:1"
       d=""
       id="path5160"
       inkscape:connector-curvature="0"
       transform="translate(0,988.36216)" />
    <path
       style="fill:#000000;fill-opacity:1;stroke:#ffffff;stroke-width:0.99009562;stroke-miterlimit:4;stroke-dasharray:none;stroke-opacity:1"
       d="m 568.56075,1330.2972 c -0.097,-0.067 -0.49655,-0.3509 -0.52853,-0.3757 l -0.0112,-0.01 0.26509,-2e-4 0.2651,-10e-5 0.002,0.01 c 9.8e-4,0 0.0156,0.076 0.0322,0.1573 0.0357,0.1753 0.0512,0.2585 0.0492,0.2644 -7.8e-4,0 -0.034,-0.018 -0.074,-0.046 z"
       id="path5162"
       inkscape:connector-curvature="0" />
    <path
       style="fill:#000000;fill-opacity:1;stroke:#ffffff;stroke-width:0.99009562;stroke-miterlimit:4;stroke-dasharray:none;stroke-opacity:1"
       d="m 568.65858,1330.395 c -0.0115,-0.01 -0.012,-0.01 -0.005,-0.01 0.005,0 0.009,0 0.009,0 0,-0.01 0.007,0 0.009,0.014 9.8e-4,0.01 0.002,0.011 9.8e-4,0.011 -6.9e-4,0 -0.007,0 -0.0142,-0.01 z"
       id="path5164"
       inkscape:connector-curvature="0" />
    <path
       style="fill:#000000;fill-opacity:1;stroke:#ffffff;stroke-width:0.00390625;stroke-miterlimit:4;stroke-dasharray:none;stroke-opacity:1"
       d=""
       id="path5166"
       inkscape:connector-curvature="0"
       transform="translate(0,988.36216)" />
    <path
       style="fill:#000000;fill-opacity:1;stroke:#ffffff;stroke-width:0.99009562;stroke-miterlimit:4;stroke-dasharray:none;stroke-opacity:1"
       d="m 568.68806,1330.4585 c -0.004,-0.018 -0.007,-0.034 -0.007,-0.037 10e-6,0 0.0155,0.01 0.0344,0.019 0.0358,0.025 0.0437,0.035 0.0144,0.017 -0.0278,-0.017 -0.0355,-0.013 -0.034,0.016 4.7e-4,0.01 2.7e-4,0.017 -4.5e-4,0.017 -7.2e-4,0 -0.004,-0.014 -0.008,-0.032 z"
       id="path5168"
       inkscape:connector-curvature="0" />
    <path
       style="fill:#000000;fill-opacity:1;stroke:#ffffff;stroke-width:0.01547024;stroke-miterlimit:4;stroke-dasharray:none;stroke-opacity:1"
       d="m 569.03065,1331.0955 c -0.16006,-0.056 -0.33233,-0.1082 -0.38282,-0.1169 -0.17134,-0.029 -0.29044,-0.1074 -0.3666,-0.2399 -0.0342,-0.06 -0.12,-0.124 -0.66095,-0.4955 -0.43649,-0.2998 -0.61208,-0.4284 -0.58968,-0.4319 0.0175,0 0.0319,-0.01 0.0319,-0.016 0,-0.01 -0.10352,-0.092 -0.23003,-0.1904 l -0.23002,-0.1789 1.15283,0 c 0.63406,0 1.16015,0 1.16909,0 0.009,0 0.0466,0.1476 0.0837,0.3203 l 0.0674,0.314 0.52636,0.3634 0.52635,0.3634 -0.43564,0 -0.43564,0 0.0436,0.1912 c 0.0484,0.2124 0.0488,0.2151 0.0326,0.2134 -0.006,-7e-4 -0.14245,-0.047 -0.3025,-0.1024 z"
       id="path5180"
       inkscape:connector-curvature="0" />
    <path
       inkscape:connector-curvature="0"
       id="path3646-3-0"
       style="fill:#000000;fill-rule:evenodd;stroke:#000000;stroke-width:1px;stroke-linecap:butt;stroke-linejoin:miter;stroke-opacity:1"
       d="m 212.79416,1414.3699 11.4375,0 1.25,-1.7501 -0.18287,-4.1365 -5.74525,0.1767 0,2.1213 -3.09359,0 0,-2.2097 -3.53553,0.088 m 1.85873,5.7164 -11.4375,0 -1.25,-1.7501 0.18287,-4.1365 5.74525,0.1767 0,2.1213 3.09359,0 0,-2.2097 3.53553,0.088 m 12.07089,39.9407 -25.875,0 2.625,-31.875 13.125,0.125 m -15.89643,31.7478 25.875,0 -2.625,-31.875 -13.125,0.125 m -15.12411,41.8286 35.50669,-0.1077 0.005,-3.411 -4.2699,-1.1849 0.0381,-2.7019 -16.51996,-0.05 m 21.51238,7.4374 -35.50669,-0.1077 -0.005,-3.411 4.2699,-1.1849 -0.0381,-2.7019 16.51996,-0.05" />
    <path
       id="path3574-0-7"
       style="fill:none;fill-rule:evenodd;stroke:#000000;stroke-width:1;stroke-linecap:butt;stroke-linejoin:miter;stroke-miterlimit:4;stroke-dasharray:none;stroke-opacity:1"
       d="m 54.154636,1398.3053 35.50669,-0.1077 0.005,-3.411 -4.26991,-1.1849 0.0381,-2.7019 -16.51996,-0.05 m 21.51239,7.4374 -35.50669,-0.1077 -0.005,-3.411 4.2699,-1.1849 -0.0381,-2.7019 16.51996,-0.05"
       inkscape:connector-curvature="0" />
    <path
       id="path3613-1-1"
       style="fill:none;fill-rule:evenodd;stroke:#000000;stroke-width:1;stroke-linecap:butt;stroke-linejoin:miter;stroke-miterlimit:4;stroke-dasharray:none;stroke-opacity:1"
       d="m 52.542546,1394.9799 -25.875,0 2.625,-31.875 13.125,0.125 m -15.89644,31.7478 25.875,0 -2.625,-31.875 -13.125,0.125"
       inkscape:connector-curvature="0" />
    <path
       id="path3646-3-5"
       style="fill:#ffffff;fill-rule:evenodd;stroke:#000000;stroke-width:1;stroke-linecap:butt;stroke-linejoin:miter;stroke-miterlimit:4;stroke-dasharray:none;stroke-opacity:1"
       d="m 144.58643,1384.6817 11.4375,0 1.25,-1.75 -0.18287,-4.1365 -5.74524,0.1767 0,2.1213 -3.09359,0 0,-2.2097 -3.53554,0.088 m 1.85874,5.7163 -11.4375,0 -1.25,-1.75 0.18287,-4.1366 5.74524,0.1768 0,2.1213 3.09359,0 0,-2.2097 3.53554,0.088"
       inkscape:connector-curvature="0" />
    <path
       id="path3794-6-8"
       style="fill:none;fill-rule:evenodd;stroke:#000000;stroke-width:1;stroke-linecap:butt;stroke-linejoin:miter;stroke-miterlimit:4;stroke-dasharray:none;stroke-opacity:1"
       d="m 105.85849,1383.8486 12.1975,-0.036 -8.19416,-17.666 -4.848,0.1015 m 2.70118,17.6092 -12.197504,-0.036 8.194164,-17.666 4.848,0.1015"
       inkscape:connector-curvature="0" />
    <rect
       style="fill:#ffffff;fill-opacity:1;stroke:#000000;stroke-width:1;stroke-miterlimit:4;stroke-dasharray:none;stroke-opacity:1"
       id="rect4618-9"
       width="6.8049417"
       height="1.8539588"
       x="169.63428"
       y="1379.3221" />
    <ellipse
       style="fill:#ffffff;fill-opacity:1;stroke:#000000;stroke-width:1;stroke-miterlimit:4;stroke-dasharray:none;stroke-opacity:1"
       id="path3814-7"
       cx="145.10602"
       cy="1392.4312"
       rx="4.0560021"
       ry="4.1341271" />
    <path
       id="path3613-1-1-9-0"
       style="fill:none;fill-rule:evenodd;stroke:#000000;stroke-width:1;stroke-linecap:butt;stroke-linejoin:miter;stroke-miterlimit:4;stroke-dasharray:none;stroke-opacity:1"
       d="m 85.121246,1388.2465 -25.96675,0 7.69031,-25.9687 8.11554,-0.043 m -15.9528,26.0094 25.96675,0 -7.69031,-25.9688 -8.11554,-0.043"
       inkscape:connector-curvature="0"
       sodipodi:nodetypes="cccccccc" />
    <path
       inkscape:connector-curvature="0"
       id="rect4618-9-9-5"
       style="fill:#ffffff;fill-opacity:1;stroke:#000000;stroke-width:1;stroke-miterlimit:4;stroke-dasharray:none;stroke-opacity:1"
       d="m 78.734976,1420.8227 11.49998,0 0,1.9528 -11.49998,0 z m -12.20931,39.465 35.506694,-0.1077 0.005,-3.411 -4.269904,-1.1849 0.0381,-2.7019 -16.51996,-0.05 m 21.512384,7.4374 -35.506684,-0.1077 -0.005,-3.411 4.2699,-1.1849 -0.0381,-2.7019 16.51996,-0.05 m 9.50376,-2.2749 -25.96674,0 7.6903,-25.9687 8.11554,-0.043 m -15.9528,26.0094 25.96675,0 -7.69031,-25.9688 -8.11554,-0.043" />
    <path
       inkscape:connector-curvature="0"
       id="path4772-4"
       style="fill:#ffffff;fill-rule:evenodd;stroke:#000000;stroke-width:1;stroke-linecap:butt;stroke-linejoin:miter;stroke-miterlimit:4;stroke-dasharray:none;stroke-opacity:1"
       d="m 144.99787,1375.5778 1.76776,0 0.17678,-5.3033 5.12652,0 0.17678,-3.5355 -5.3033,0 0.17678,-4.4194 -2.2981,0 m 0.42887,13.2734 -1.76777,0 -0.17678,-5.3033 -5.12652,0 -0.17678,-3.5355 5.3033,0 -0.17677,-4.4195 2.29809,0" />
    <path
       inkscape:connector-curvature="0"
       id="path4873-3-5-0"
       style="fill:none;fill-rule:evenodd;stroke:#000000;stroke-width:1;stroke-linecap:butt;stroke-linejoin:miter;stroke-miterlimit:4;stroke-dasharray:none;stroke-opacity:1"
       d="m 145.90103,1359.5555 -5.61945,-0.1241 -3.83767,-7.5684 3.70061,1.6129 3.28943,-1.1167 2.33002,1.4889 m -0.81153,5.706 5.61945,-0.1241 3.83767,-7.5684 -3.70061,1.6129 -3.28943,-1.1167 -2.33002,1.4889" />
    <ellipse
       style="fill:#ffffff;fill-opacity:1;stroke:#000000;stroke-width:1;stroke-miterlimit:4;stroke-dasharray:none;stroke-opacity:1"
       id="path3814-7-6-6"
       cx="145.41174"
       cy="1348.3743"
       rx="2.0024726"
       ry="1.9922092" />
    <ellipse
       style="fill:#ffffff;fill-opacity:1;stroke:#000000;stroke-width:0.99009562;stroke-miterlimit:4;stroke-dasharray:none;stroke-opacity:1"
       id="path3814-7-61-0"
       cx="154.01019"
       cy="1327.9678"
       rx="1.4687694"
       ry="1.5323601" />
    <path
       id="path5042-0-5"
       style="fill:none;fill-rule:evenodd;stroke:#000000;stroke-width:0.99009562px;stroke-linecap:butt;stroke-linejoin:miter;stroke-opacity:1"
       d="m 158.07151,1335.5863 2.17283,3.086 -1.99277,4.5964 -4.15884,0 -2.77257,0 m 3.47392,-10.8905 -2.2527,0 -4.41878,6.2758 1.99279,4.5964 4.15884,0 2.77255,0 m -3.47391,-10.8538 2.2527,0 1.28782,1.829 -2.36046,4.3217 0.43321,0.3095 2.88537,-3.2705"
       inkscape:connector-curvature="0"
       sodipodi:nodetypes="cccccccccccccc" />
    <path
       inkscape:connector-curvature="0"
       id="path3814-7-61-6"
       style="fill:#000000;fill-opacity:1;stroke:#000000;stroke-width:1;stroke-miterlimit:4;stroke-dasharray:none;stroke-opacity:1"
       d="m 157.69111,1407.0713 a 1.4983649,1.5322957 0 0 1 -1.49836,1.5323 1.4983649,1.5322957 0 0 1 -1.49837,-1.5323 1.4983649,1.5322957 0 0 1 1.49837,-1.5322 1.4983649,1.5322957 0 0 1 1.49836,1.5322 z m 2.63839,6.0106 2.21661,3.0858 -2.03293,4.5962 -4.24264,0 -2.82843,0 m 3.54391,-10.89 -2.29809,0 -4.50781,6.2755 2.03293,4.5962 4.24264,0 2.82843,0 m -3.54391,-10.8534 2.29809,0 1.31377,1.829 -2.40802,4.3215 0.44194,0.3094 2.94351,-3.2702 m -9.86946,9.4191 11.49998,0 0,1.9528 -11.49998,0 z m -12.20931,39.465 35.50669,-0.1077 0.005,-3.411 -4.2699,-1.1849 0.0381,-2.7019 -16.51996,-0.05 m 21.51238,7.4374 -35.50668,-0.1077 -0.005,-3.411 4.2699,-1.1849 -0.0381,-2.7019 16.51996,-0.05 m 9.50376,-2.2749 -25.96674,0 7.6903,-25.9687 8.11554,-0.043 m -15.9528,26.0094 25.96675,0 -7.69031,-25.9688 -8.11554,-0.043" />
    <path
       style="fill:#000000;fill-opacity:1;stroke:#000000;stroke-width:1;stroke-miterlimit:4;stroke-dasharray:none;stroke-opacity:1"
       d="m 157.76226,1413.5076 c -4.9e-4,-0.01 -0.12093,-0.5848 -0.26765,-1.2782 -0.14672,-0.6934 -0.26269,-1.2648 -0.25772,-1.2698 0.009,-0.01 1.32378,0.8963 1.38145,0.9507 0.0228,0.021 -0.0516,0.17 -0.37772,0.7544 -0.22333,0.4003 -0.42212,0.7576 -0.44176,0.7941 -0.0197,0.036 -0.0361,0.058 -0.0366,0.049 z"
       id="path5154-9"
       inkscape:connector-curvature="0" />
    <path
       style="fill:#ffffff;fill-opacity:1;stroke:#000000;stroke-width:1;stroke-miterlimit:4;stroke-dasharray:none;stroke-opacity:1"
       d="m 156.91064,1410.6923 c -0.14585,-0.1018 -0.29985,-0.2095 -0.34225,-0.2395 l -0.0771,-0.054 0.29831,0 0.29832,0 0.0493,0.2358 c 0.0271,0.1297 0.0469,0.2375 0.0439,0.2395 -0.003,0 -0.12473,-0.08 -0.27057,-0.1813 z"
       id="path5156-8"
       inkscape:connector-curvature="0" />
    <path
       style="fill:#000000;fill-rule:evenodd;stroke:#ffffff;stroke-width:1;stroke-linecap:butt;stroke-linejoin:miter;stroke-miterlimit:4;stroke-dasharray:none;stroke-opacity:1"
       d="m 160.2538,1412.3404 -2.14342,2.5854"
       id="path5158-0"
       inkscape:connector-curvature="0" />
    <path
       style="fill:#000000;fill-opacity:1;stroke:#ffffff;stroke-width:1;stroke-miterlimit:4;stroke-dasharray:none;stroke-opacity:1"
       d="m 157.08725,1410.7974 c -0.099,-0.067 -0.50655,-0.351 -0.53918,-0.3758 l -0.0114,-0.01 0.27043,-10e-5 0.27044,-10e-5 0.002,0.01 c 0.001,0.01 0.0159,0.076 0.0329,0.1572 0.0364,0.1754 0.0522,0.2585 0.0502,0.2644 -7.9e-4,0 -0.0347,-0.018 -0.0755,-0.046 z"
       id="path5162-6"
       inkscape:connector-curvature="0" />
    <path
       style="fill:#000000;fill-opacity:1;stroke:#ffffff;stroke-width:1;stroke-miterlimit:4;stroke-dasharray:none;stroke-opacity:1"
       d="m 157.18705,1410.8951 c -0.0117,-0.01 -0.0122,-0.01 -0.005,-0.01 0.005,0 0.009,0 0.009,-0.01 0,-0.01 0.007,0 0.009,0.014 0.001,0.01 0.002,0.011 0.001,0.011 -7e-4,0 -0.007,0 -0.0145,-0.01 z"
       id="path5164-7"
       inkscape:connector-curvature="0" />
    <path
       style="fill:#000000;fill-opacity:1;stroke:#ffffff;stroke-width:1;stroke-miterlimit:4;stroke-dasharray:none;stroke-opacity:1"
       d="m 157.21713,1410.9586 c -0.004,-0.018 -0.007,-0.034 -0.007,-0.037 1e-5,0 0.0158,0.01 0.0351,0.019 0.0365,0.025 0.0446,0.035 0.0147,0.017 -0.0284,-0.017 -0.0362,-0.013 -0.0347,0.016 4.8e-4,0.01 2.7e-4,0.017 -4.6e-4,0.017 -7.3e-4,0 -0.004,-0.014 -0.008,-0.032 z"
       id="path5168-3"
       inkscape:connector-curvature="0" />
    <path
       style="fill:#000000;fill-opacity:1;stroke:#ffffff;stroke-width:0.015625;stroke-miterlimit:4;stroke-dasharray:none;stroke-opacity:1"
       d="m 157.56662,1411.5957 c -0.16328,-0.056 -0.33902,-0.1083 -0.39053,-0.1169 -0.17479,-0.029 -0.29629,-0.1074 -0.37399,-0.24 -0.0349,-0.06 -0.12242,-0.1239 -0.67427,-0.4954 -0.44528,-0.2998 -0.62441,-0.4284 -0.60156,-0.4319 0.0179,0 0.0325,-0.01 0.0325,-0.016 0,-0.01 -0.1056,-0.092 -0.23466,-0.1904 l -0.23466,-0.1789 1.17606,0 c 0.64684,0 1.18353,0 1.19265,0 0.009,0 0.0475,0.1476 0.0854,0.3203 l 0.0688,0.314 0.53696,0.3634 0.53696,0.3635 -0.44442,0 -0.44442,0 0.0445,0.1911 c 0.0494,0.2124 0.0498,0.2151 0.0333,0.2134 -0.006,-6e-4 -0.14532,-0.047 -0.3086,-0.1024 z"
       id="path5180-7"
       inkscape:connector-curvature="0" />
    <rect
       style="fill:#00beff;fill-opacity:1;stroke:#ffffff;stroke-width:5.79755545;stroke-miterlimit:4;stroke-dasharray:none;stroke-opacity:1"
       id="rect4518"
       width="499.01822"
       height="502.02338"
       x="11.786025"
       y="548.75854" />
    <path
       id="path4772-4-4"
       style="fill:#ffffff;fill-rule:evenodd;stroke:#000000;stroke-width:7.75963354;stroke-linecap:butt;stroke-linejoin:miter;stroke-miterlimit:4;stroke-dasharray:none;stroke-opacity:1"
       d="m 154.3187,672.49153 11.32276,0 1.13231,-35.56826 32.83618,0 1.13232,-23.71261 -33.9685,0 1.13233,-29.6401 -14.71971,0 m 2.74699,89.02293 -11.32287,0 -1.1323,-35.56895 -32.83619,0 -1.13231,-23.71193 33.9685,0 -1.13222,-29.64011 14.7196,0 m -38.0474,106.28556 73.6593,0 0,13.09708 -73.6593,0 z m -78.202458,264.68513 227.425938,-0.72223 0.0321,-22.87707 -27.34938,-7.94687 0.24404,-18.12106 -105.81296,-0.33533 m 137.7902,49.8812 -227.425952,-0.7223 -0.03098,-22.877 27.349336,-7.9468 -0.244268,-18.12121 105.813004,-0.33532 m 60.87312,-15.25743 -166.321158,0 49.257648,-174.16718 51.98128,-0.28845 M 72.217472,889.2464 l 166.321138,0 -49.25771,-174.16795 -51.98129,-0.28836"
       inkscape:connector-curvature="0" />
    <path
       inkscape:connector-curvature="0"
       id="path4772-4-4-4"
       style="fill:#000000;fill-rule:evenodd;stroke:#000000;stroke-width:6.9097023;stroke-linecap:butt;stroke-linejoin:miter;stroke-miterlimit:4;stroke-dasharray:none;stroke-opacity:1"
       d="m 854.43268,1478.707 8.63444,0 0.86347,-27.3217 25.03987,0 0.86345,-18.2142 -25.90332,0 0.86341,-22.7684 -11.2248,0 m 2.09477,68.3825 -8.63445,0 -0.86348,-27.322 -25.03985,0 -0.86346,-18.2143 25.90331,0 -0.86341,-22.7679 11.2248,0 m -29.0138,81.6428 56.17032,0 0,10.0605 -56.17032,0 z m -59.6349,203.3168 173.42814,-0.5548 0.0244,-17.573 -20.85576,-6.1043 0.18609,-13.9197 -80.68979,-0.2576 m 105.07462,38.3162 -173.42814,-0.5549 -0.0244,-17.5729 20.85587,-6.1044 -0.1861,-13.9197 80.68973,-0.2576 m 46.42002,-11.7198 -126.83149,0 37.56239,-133.7858 39.63942,-0.2216 m -77.91957,133.9956 126.83145,0 -37.56234,-133.7864 -39.63942,-0.2215" />
    <path
       inkscape:connector-curvature="0"
       id="path3814-7-6-1"
       style="fill:#000000;fill-opacity:1;stroke:#000000;stroke-width:4.42681599;stroke-miterlimit:4;stroke-dasharray:none;stroke-opacity:1"
       d="m 368.31593,786.11096 a 8.7693958,8.914864 0 0 1 -8.76944,8.91484 8.7693958,8.914864 0 0 1 -8.76938,-8.91484 8.7693958,8.914864 0 0 1 8.76938,-8.91527 8.7693958,8.914864 0 0 1 8.76944,8.91527 z m -6.25485,47.12659 -24.60912,-0.55534 -16.80629,-33.868 16.20606,7.21795 14.40535,-4.99707 10.20377,6.66261 m -3.55388,25.53358 24.60917,-0.55533 16.80626,-33.86801 -16.20603,7.21796 -14.40535,-4.99708 -10.20381,6.66262 m -24.52864,34.57279 50.36168,0 0,8.73852 -50.36168,0 z m -53.46803,176.60047 155.49387,-0.4819 0.0219,-15.2638 -18.6991,-5.30221 0.16685,-12.09065 -72.34559,-0.22377 m 94.20885,33.28133 -155.49386,-0.4819 -0.0219,-15.2638 18.69911,-5.30223 -0.16686,-12.09063 72.34559,-0.22378 m 41.61966,-10.17984 -113.71573,0 33.67801,-116.20683 35.54025,-0.19242 m -69.86184,116.38892 113.71577,0 -33.67804,-116.20724 -35.54021,-0.19243" />
    <flowRoot
       xml:space="preserve"
       id="flowRoot4538"
       style="font-style:normal;font-variant:normal;font-weight:bold;font-stretch:normal;font-size:60px;line-height:125%;font-family:sans-serif;-inkscape-font-specification:'sans-serif, Bold';text-align:start;letter-spacing:0px;word-spacing:0px;writing-mode:lr-tb;text-anchor:start;fill:#ff0000;fill-opacity:1;stroke:none;stroke-width:2;stroke-linecap:butt;stroke-linejoin:miter;stroke-miterlimit:4;stroke-dasharray:none;stroke-opacity:1"
       transform="matrix(3.1999596,0,0,2.7658246,-510.90233,396.31996)"><flowRegion
         id="flowRegion4540"><rect
           id="rect4542"
           width="178"
           height="72"
           x="228"
           y="62"
           style="font-style:normal;font-variant:normal;font-weight:bold;font-stretch:normal;font-size:60px;line-height:125%;font-family:sans-serif;-inkscape-font-specification:'sans-serif, Bold';text-align:start;writing-mode:lr-tb;text-anchor:start;fill:#ff0000;stroke-width:2;stroke-miterlimit:4;stroke-dasharray:none" /></flowRegion><flowPara
         id="flowPara4544">o</flowPara></flowRoot>    <text
       xml:space="preserve"
       style="font-style:normal;font-variant:normal;font-weight:bold;font-stretch:normal;font-size:221.43489075px;line-height:125%;font-family:sans-serif;-inkscape-font-specification:'sans-serif, Bold';text-align:start;letter-spacing:0px;word-spacing:0px;writing-mode:lr-tb;text-anchor:start;fill:#ffffff;fill-opacity:1;stroke:none;stroke-width:1px;stroke-linecap:butt;stroke-linejoin:miter;stroke-opacity:1"
       x="339.86813"
       y="694.3584"
       id="text4546"
       sodipodi:linespacing="125%"
       transform="scale(0.91220349,1.0962466)"><tspan
         sodipodi:role="line"
         id="tspan4548"
         x="339.86813"
         y="694.3584"
         style="font-style:normal;font-variant:normal;font-weight:bold;font-stretch:normal;font-size:221.43489075px;line-height:125%;font-family:sans-serif;-inkscape-font-specification:'sans-serif, Bold';text-align:start;writing-mode:lr-tb;text-anchor:start;fill:#ffffff">C</tspan></text>
  </g>
</svg>
